<svg width="14" height="8" viewBox="0 0 14 8" fill="none" xmlns="http://www.w3.org/2000/svg">
<path d="M13.0428 3.36094C13.7423 2.85538 13.8737 1.91214 13.3362 1.25414C12.7987 0.596141 11.7959 0.472566 11.0964 0.978125L6.02987 4.63971C5.33033 5.14527 5.19895 6.08852 5.73643 6.74651C6.27391 7.40451 7.27671 7.52809 7.97625 7.02253L13.0428 3.36094Z" fill="#3A3A3C"/>
<path d="M2.90266 0.982921C2.20244 0.478192 1.1998 0.602958 0.663209 1.26159C0.126614 1.92023 0.259257 2.86332 0.959476 3.36805L6.03091 7.02361C6.73113 7.52834 7.73377 7.40358 8.27036 6.74494C8.80696 6.08631 8.67431 5.14321 7.97409 4.63849L2.90266 0.982921Z" fill="#3A3A3C"/>
</svg>
