<svg width="20" height="21" viewBox="0 0 20 21" fill="none" xmlns="http://www.w3.org/2000/svg">
<path d="M19.9579 10.2456C19.9579 9.51343 19.892 8.81284 19.7695 8.13916H10.293V11.9988L15.7507 12C15.5293 13.2842 14.817 14.3789 13.7254 15.1087V17.6128H16.9741C18.8711 15.869 19.9579 13.2912 19.9579 10.2456Z" fill="#4285F4"/>
<path d="M13.7265 15.1085C12.8222 15.7144 11.6576 16.0688 10.2953 16.0688C7.66354 16.0688 5.43099 14.3074 4.63146 11.9331H1.28027V14.5156C2.94056 17.7881 6.35297 20.0337 10.2953 20.0337C13.02 20.0337 15.3091 19.1436 16.9753 17.6115L13.7265 15.1085Z" fill="#34A853"/>
<path d="M4.31633 10.0175C4.31633 9.35081 4.42819 8.70637 4.6319 8.10052V5.51807H1.28072C0.594228 6.87128 0.208008 8.39877 0.208008 10.0175C0.208008 11.6362 0.595406 13.1637 1.28072 14.5169L4.6319 11.9344C4.42819 11.3286 4.31633 10.6841 4.31633 10.0175Z" fill="#FABB05"/>
<path d="M10.2953 3.96491C11.7825 3.96491 13.1142 4.47368 14.1657 5.46783L17.0447 2.61052C15.2961 0.992982 13.0165 0 10.2953 0C6.35415 0 2.94056 2.24561 1.28027 5.51812L4.63146 8.10058C5.43099 5.72631 7.66354 3.96491 10.2953 3.96491Z" fill="#E94235"/>
</svg>
