<svg width="173" height="173" viewBox="0 0 173 173" fill="none" xmlns="http://www.w3.org/2000/svg">
<path fill-rule="evenodd" clip-rule="evenodd" d="M8.02009 122.685C8.63757 122.465 9.28735 122.172 9.78843 121.749C10.3836 121.246 10.6256 120.599 10.7881 119.917C10.9968 119.041 11.0802 118.108 11.3332 117.231C11.4269 116.905 11.6072 116.782 11.6845 116.727C11.8801 116.589 12.0777 116.552 12.2637 116.566C12.484 116.582 12.7867 116.666 12.9858 117.035C13.0142 117.088 13.0511 117.168 13.076 117.279C13.0941 117.36 13.1058 117.613 13.1249 117.717C13.1728 117.974 13.2129 118.231 13.2506 118.489C13.3758 119.349 13.4479 120.079 13.8436 120.869C14.3805 121.942 14.9185 122.598 15.6481 122.889C16.3536 123.17 17.1971 123.117 18.2748 122.896C18.3774 122.872 18.4789 122.85 18.5793 122.833C19.0545 122.75 19.5087 123.062 19.6021 123.535C19.6954 124.008 19.3934 124.469 18.9225 124.573C18.8242 124.595 18.7273 124.615 18.6315 124.634C17.1751 124.995 15.4891 126.282 14.5093 127.408C14.2073 127.756 13.7651 128.727 13.3141 129.347C12.9812 129.804 12.6072 130.105 12.2931 130.211C12.0827 130.283 11.9052 130.272 11.7587 130.236C11.5458 130.183 11.369 130.068 11.2335 129.885C11.1597 129.784 11.0912 129.65 11.0585 129.478C11.0429 129.395 11.0411 129.185 11.0415 129.09C10.9496 128.774 10.8371 128.465 10.7551 128.146C10.5596 127.385 10.1759 126.903 9.72029 126.266C9.29409 125.67 8.83632 125.296 8.16526 124.997C8.07796 124.976 7.37353 124.803 7.12477 124.704C6.76138 124.559 6.58819 124.316 6.52538 124.185C6.41857 123.963 6.40757 123.769 6.42887 123.607C6.46045 123.368 6.56762 123.164 6.75783 122.999C6.87565 122.896 7.05167 122.797 7.2873 122.748C7.46935 122.71 7.95231 122.688 8.02009 122.685ZM12.1526 121.444C12.1852 121.517 12.22 121.59 12.2569 121.664C13.0433 123.235 13.9227 124.111 14.9916 124.537L15.0274 124.551C14.3123 125.082 13.665 125.675 13.1703 126.244C12.9667 126.478 12.697 126.965 12.4056 127.464C12.1409 126.603 11.7079 125.995 11.1636 125.234C10.7476 124.653 10.3119 124.215 9.77637 123.859C10.1919 123.646 10.5883 123.396 10.9336 123.104C11.5085 122.619 11.8886 122.056 12.1526 121.444Z" fill="#1749B3"/>
<circle cx="23.7198" cy="17.9537" r="3.46" fill="#1749B3"/>
<circle cx="161.543" cy="90.0371" r="3.46" fill="#1749B3"/>
<path d="M80.8103 145.974C117.118 145.974 146.55 116.541 146.55 80.2337C146.55 43.9265 117.118 14.4937 80.8103 14.4937C44.5031 14.4937 15.0703 43.9265 15.0703 80.2337C15.0703 116.541 44.5031 145.974 80.8103 145.974Z" fill="url(#paint0_linear_2_4494)"/>
<path fill-rule="evenodd" clip-rule="evenodd" d="M80.5209 40.4441C87.6868 40.4441 93.4959 34.635 93.4959 27.4691C93.4959 20.3032 87.6868 14.4941 80.5209 14.4941C73.355 14.4941 67.5459 20.3032 67.5459 27.4691C67.5459 34.635 73.355 40.4441 80.5209 40.4441ZM80.2326 34.6775C84.0544 34.6775 87.1526 31.5793 87.1526 27.7575C87.1526 23.9357 84.0544 20.8375 80.2326 20.8375C76.4108 20.8375 73.3126 23.9357 73.3126 27.7575C73.3126 31.5793 76.4108 34.6775 80.2326 34.6775Z" fill="#011625"/>
<path d="M80.2615 131.615C94.2907 131.615 105.664 120.242 105.664 106.213C105.664 92.1835 94.2907 80.8105 80.2615 80.8105C66.2323 80.8105 54.8594 92.1835 54.8594 106.213C54.8594 120.242 66.2323 131.615 80.2615 131.615Z" fill="#FE0000"/>
<path d="M120.465 87.3264V67.8379C120.465 57.2079 116.243 47.0132 108.726 39.4966C101.209 31.9801 91.0148 27.7573 80.3848 27.7573C69.7548 27.7573 59.5601 31.9801 52.0436 39.4966C44.527 47.0132 40.3043 57.2079 40.3043 67.8379V87.3264C40.3047 91.8037 39.0381 96.1898 36.6509 99.9776C34.2636 103.765 30.8532 106.8 26.8138 108.732C25.8854 109.174 25.1017 109.87 24.5539 110.741C24.0062 111.611 23.7169 112.619 23.7197 113.647V113.753C23.7191 114.124 23.7916 114.492 23.9333 114.835C24.0749 115.179 24.2829 115.491 24.5452 115.754C24.8076 116.017 25.1193 116.225 25.4623 116.367C25.8054 116.51 26.1732 116.583 26.5446 116.583H134.22C134.591 116.583 134.959 116.51 135.302 116.367C135.645 116.225 135.957 116.017 136.219 115.754C136.481 115.491 136.689 115.179 136.831 114.835C136.973 114.492 137.045 114.124 137.045 113.753V113.647C137.045 112.622 136.755 111.618 136.208 110.751C135.662 109.884 134.881 109.189 133.956 108.747C129.914 106.815 126.502 103.778 124.115 99.9867C121.727 96.1958 120.462 91.8064 120.465 87.3264Z" fill="#E1DCEB"/>
<path fill-rule="evenodd" clip-rule="evenodd" d="M137.323 116.564H23.7197V113.104H137.323V116.564Z" fill="#011625"/>
<path fill-rule="evenodd" clip-rule="evenodd" d="M49.1564 125.388C46.3938 127.887 43.6391 130.334 40.9505 132.912C40.3701 133.465 40.3483 134.375 40.8974 134.949C41.4482 135.529 42.3642 135.547 42.9391 134.996C45.6147 132.435 48.3455 130.008 51.0896 127.527C51.6808 126.989 51.7265 126.077 51.1976 125.49C50.6615 124.9 49.7476 124.85 49.1564 125.388Z" fill="#011625"/>
<path fill-rule="evenodd" clip-rule="evenodd" d="M111.561 125.39C114.308 127.889 117.047 130.337 119.72 132.915C120.297 133.467 120.314 134.377 119.763 134.95C119.209 135.529 118.294 135.546 117.723 134.995C115.063 132.434 112.347 130.005 109.619 127.524C109.031 126.987 108.99 126.075 109.521 125.489C110.06 124.9 110.973 124.852 111.561 125.39Z" fill="#011625"/>
<path fill-rule="evenodd" clip-rule="evenodd" d="M78.5917 141.531C78.548 145.248 78.4721 148.925 78.5366 152.641C78.5476 153.44 79.2004 154.072 79.9938 154.057C80.7925 154.045 81.4275 153.385 81.4141 152.591C81.3528 148.895 81.427 145.25 81.4715 141.559C81.4786 140.761 80.8407 140.11 80.0517 140.102C79.2551 140.096 78.5989 140.734 78.5917 141.531Z" fill="#011625"/>
<defs>
<linearGradient id="paint0_linear_2_4494" x1="80.3035" y1="-6.91291" x2="81.6502" y2="223.956" gradientUnits="userSpaceOnUse">
<stop stop-color="#F9F9F9"/>
<stop offset="1" stop-color="#EFEFEF"/>
</linearGradient>
</defs>
</svg>
