<svg width="185" height="185" viewBox="0 0 185 185" fill="none" xmlns="http://www.w3.org/2000/svg">
<path d="M90.2801 149.876C122.182 149.876 148.044 124.299 148.044 92.748C148.044 61.1969 122.182 35.6196 90.2801 35.6196C58.3782 35.6196 32.5166 61.1969 32.5166 92.748C32.5166 124.299 58.3782 149.876 90.2801 149.876Z" fill="url(#paint0_linear_2_4500)"/>
<path fill-rule="evenodd" clip-rule="evenodd" d="M140.118 129.165C140.644 128.979 141.198 128.733 141.626 128.376C142.133 127.952 142.339 127.406 142.478 126.831C142.656 126.093 142.727 125.306 142.942 124.567C143.022 124.292 143.176 124.188 143.242 124.142C143.409 124.026 143.577 123.995 143.736 124.006C143.924 124.02 144.182 124.09 144.351 124.401C144.375 124.446 144.407 124.514 144.428 124.607C144.444 124.675 144.454 124.889 144.47 124.976C144.511 125.193 144.545 125.41 144.577 125.628C144.684 126.353 144.745 126.968 145.082 127.634C145.54 128.538 145.999 129.092 146.621 129.337C147.222 129.574 147.941 129.529 148.86 129.343C148.948 129.322 149.034 129.304 149.12 129.29C149.525 129.22 149.912 129.483 149.992 129.882C150.071 130.281 149.814 130.669 149.412 130.757C149.328 130.775 149.246 130.793 149.164 130.808C147.923 131.112 146.485 132.197 145.65 133.147C145.393 133.44 145.016 134.259 144.631 134.782C144.347 135.167 144.028 135.421 143.761 135.511C143.581 135.571 143.43 135.562 143.305 135.531C143.124 135.487 142.973 135.39 142.857 135.235C142.794 135.15 142.736 135.037 142.708 134.892C142.695 134.823 142.693 134.645 142.694 134.565C142.615 134.299 142.519 134.038 142.45 133.769C142.283 133.128 141.956 132.721 141.567 132.184C141.204 131.682 140.814 131.366 140.242 131.115C140.167 131.097 139.567 130.951 139.355 130.868C139.045 130.745 138.897 130.54 138.844 130.43C138.753 130.243 138.743 130.079 138.762 129.943C138.788 129.741 138.88 129.569 139.042 129.43C139.142 129.343 139.292 129.259 139.493 129.218C139.649 129.186 140.06 129.168 140.118 129.165ZM143.641 128.119C143.669 128.18 143.698 128.242 143.73 128.304C144.4 129.628 145.15 130.368 146.061 130.727L146.092 130.738C145.482 131.186 144.93 131.686 144.509 132.166C144.335 132.363 144.105 132.773 143.857 133.194C143.631 132.468 143.262 131.956 142.798 131.314C142.443 130.824 142.072 130.455 141.615 130.155C141.97 129.975 142.307 129.765 142.602 129.519C143.092 129.109 143.416 128.634 143.641 128.119Z" fill="#1749B3"/>
<ellipse cx="24.765" cy="81.6158" rx="2.73572" ry="2.70564" fill="#1749B3"/>
<path d="M44.0344 51.9011L44.0345 51.9012C46.1248 53.2352 47.4856 55.0781 48.1786 57.4413L48.4201 57.3705L48.1783 57.4403C48.3002 57.8629 48.7441 58.1021 49.165 57.9803L49.1654 57.9802C49.5842 57.8583 49.8316 57.4187 49.7066 56.9959C48.9037 54.2587 47.3164 52.1128 44.8933 50.5655L44.0344 51.9011ZM44.0344 51.9011C43.6653 51.6653 43.5557 51.1741 43.7951 50.8045L44.0344 51.9011Z" fill="#011625" stroke="#011625" stroke-width="0.503333"/>
<path d="M73.9995 58.2765L73.9996 58.2764C74.5456 58.0004 74.742 57.4723 74.692 56.908C74.648 56.3923 74.3734 55.8172 74.2247 55.5559L73.9995 58.2765ZM73.9995 58.2765C73.3651 58.5966 72.8241 58.5755 72.392 58.3614C71.9797 58.1577 71.6784 57.7682 71.4952 57.285L71.4952 57.2849M73.9995 58.2765L71.4952 57.2849M71.4952 57.2849C71.3207 56.8239 71.251 56.257 71.2438 55.7213C71.2373 55.2438 71.2802 54.7744 71.3521 54.4017C70.9379 53.9878 70.4873 53.6101 70.007 53.2715C66.197 50.5859 60.5488 51.5458 56.1537 55.6497C55.4212 56.3339 54.8615 57.4132 54.4364 58.7533C54.0126 60.0892 53.7302 61.659 53.5363 63.2988L53.5363 63.2989M71.4952 57.2849L53.5363 63.2989M53.5363 63.2989C53.0105 67.7399 53.2026 72.6334 53.2933 74.9458C53.3069 75.2927 53.3183 75.5816 53.3246 75.802L53.3246 75.8026L53.5363 63.2989ZM52.6576 77.0952L52.6602 77.0947C52.8314 77.0624 53.1064 76.9663 53.2542 76.6182C53.2544 76.6178 53.2545 76.6175 53.2547 76.6171L53.0229 76.519L52.6576 77.0952ZM52.6576 77.0952C52.416 77.1381 52.2144 77.0921 52.0519 77.0082L52.0506 77.0076M52.6576 77.0952L52.0506 77.0076M52.0506 77.0076C51.8289 76.8915 51.6528 76.6877 51.5737 76.3946L51.5732 76.3928M52.0506 77.0076L51.5732 76.3928M51.5732 76.3928C51.5313 76.2325 51.5236 76.0296 51.5281 75.8395L51.5282 75.8369M51.5732 76.3928L51.5282 75.8369M51.5282 75.8369C51.5295 75.7984 51.5323 75.7606 51.535 75.7274C51.5379 75.6923 51.5404 75.664 51.5421 75.636C51.5438 75.6086 51.5442 75.588 51.5435 75.572C51.5429 75.5556 51.5412 75.5508 51.5419 75.5532L51.784 75.4845L51.5422 75.5542C51.396 75.0466 51.2236 74.5495 51.0482 74.0436C51.0226 73.9698 50.997 73.8958 50.9713 73.8215L50.9712 73.821M51.5282 75.8369L50.9712 73.821M50.9712 73.821C50.3086 71.8889 49.4506 70.075 48.4935 68.2563L48.7162 68.1391M50.9712 73.821L48.7162 68.1391M48.7162 68.1391L48.4934 68.2563C48.2364 67.7678 47.9802 67.2774 47.7237 66.7863C44.928 61.4339 42.0896 55.9998 37.5475 51.9886L37.5475 51.9886M48.7162 68.1391L37.5475 51.9886M37.5475 51.9886C37.2197 51.6989 37.1866 51.1967 37.4805 50.8682C37.7718 50.5401 38.2739 50.5126 38.6028 50.8008L38.6036 50.8015C43.35 54.992 46.3158 60.6628 49.184 66.1469C49.4242 66.6061 49.6637 67.064 49.9034 67.5196L49.9035 67.5196C50.5121 68.6765 51.0848 69.8373 51.5964 71.0296M37.5475 51.9886L51.5964 71.0296M51.5964 71.0296C51.5722 68.3234 51.6563 64.9733 52.11 61.9531C52.3468 60.3759 52.6915 58.8825 53.1713 57.6007C53.65 56.3214 54.2694 55.236 55.0655 54.4923L55.0655 54.4923C59.9958 49.8885 66.4837 48.8437 70.9263 51.9766L70.9264 51.9767C71.3109 52.2481 71.681 52.5418 72.0316 52.8567C74.4153 48.8899 79.2656 47.3344 83.5594 49.2841C83.5594 49.2841 83.5595 49.2842 83.5595 49.2842L51.5964 71.0296ZM73.0881 56.9367C73.0845 56.9362 73.0853 56.937 73.0933 56.9358L73.0881 56.9367ZM73.0881 56.9367C73.0892 56.9414 73.0902 56.946 73.0912 56.9507C73.0916 56.9524 73.0919 56.9543 73.0923 56.9565C73.0924 56.9573 73.0926 56.9581 73.0927 56.9589C73.0949 56.9732 73.0971 56.995 73.0987 57.0225C73.1005 57.0546 73.101 57.0856 73.101 57.105L73.0881 56.9367ZM72.9847 56.7243L72.9848 56.7246C73.0141 56.8018 73.037 56.8554 73.0611 56.8947C73.0714 56.9116 73.0799 56.9223 73.0863 56.9291C73.0468 56.764 72.972 56.5925 72.9056 56.461C72.9275 56.5547 72.9538 56.6432 72.9847 56.7243ZM73.3374 56.8984L73.3374 56.8984L73.3374 56.8984Z" fill="#011625" stroke="#011625" stroke-width="0.503333"/>
<rect x="63.6201" y="65.2588" width="99.4368" height="35.4515" rx="12.08" fill="#011625"/>
<rect x="104.667" y="77.4634" width="33.531" height="4.64938" rx="2.32469" fill="#CCC6D9"/>
<rect x="72.292" y="84.4375" width="66.0747" height="4.64938" rx="2.32469" fill="white"/>
<ellipse cx="150.338" cy="83.2751" rx="5.78121" ry="5.81173" fill="#E1DCEB"/>
<rect x="22.0293" y="94.8989" width="99.4368" height="35.4515" rx="12.08" fill="#E1DCEB"/>
<rect x="46.8867" y="107.104" width="33.531" height="4.64938" rx="2.32469" fill="#FE0000"/>
<rect x="46.8867" y="114.078" width="66.0747" height="4.64938" rx="2.32469" fill="white"/>
<ellipse cx="36.4814" cy="112.916" rx="5.78121" ry="5.81173" fill="#FE0000"/>
<defs>
<linearGradient id="paint0_linear_2_4500" x1="89.8348" y1="17.0172" x2="90.9923" y2="217.643" gradientUnits="userSpaceOnUse">
<stop stop-color="#E9E6E6"/>
<stop offset="0.276042" stop-color="#F7F7F7"/>
</linearGradient>
</defs>
</svg>
