<svg width="185" height="185" viewBox="0 0 185 185" fill="none" xmlns="http://www.w3.org/2000/svg">
<g clip-path="url(#clip0_2_4505)">
<path d="M95.4821 170.533C136.581 170.533 169.899 137.216 169.899 96.1164C169.899 55.0172 136.581 21.6997 95.4821 21.6997C54.3829 21.6997 21.0654 55.0172 21.0654 96.1164C21.0654 137.216 54.3829 170.533 95.4821 170.533Z" fill="url(#paint0_linear_2_4505)"/>
<path d="M50.6198 124.933L81.8896 39.0679L147.831 108.791L71.2435 143.948C58.9751 149.58 46.0005 137.617 50.6198 124.933Z" fill="#E1DCEB"/>
<path d="M123.393 66.1843C132.497 75.8849 139.836 85.502 144.343 93.204C146.597 97.0572 148.134 100.416 148.834 103.057C149.184 104.378 149.32 105.502 149.241 106.412C149.163 107.318 148.874 107.989 148.394 108.44C147.913 108.892 147.225 109.137 146.315 109.158C145.403 109.179 144.289 108.971 142.993 108.539C140.402 107.673 137.147 105.927 133.444 103.433C126.043 98.4473 116.91 90.5144 107.806 80.8139C98.7011 71.1133 91.3624 61.4962 86.8559 53.7943C84.6013 49.941 83.0646 46.5824 82.3648 43.9414C82.0148 42.6206 81.8786 41.4958 81.9569 40.5865C82.0351 39.6799 82.3239 39.009 82.8047 38.5578C83.2854 38.1066 83.9732 37.8608 84.883 37.8402C85.7954 37.8196 86.9094 38.0268 88.2053 38.4597C90.7968 39.3254 94.0513 41.0716 97.754 43.5657C105.155 48.5509 114.288 56.4838 123.393 66.1843Z" fill="#011625" stroke="#011625" stroke-width="0.633333"/>
<mask id="mask0_2_4505" style="mask-type:alpha" maskUnits="userSpaceOnUse" x="49" y="39" width="99" height="107">
<path d="M50.6198 124.933L81.8896 39.0674L147.831 108.79L71.2435 143.948C58.9751 149.58 46.0005 137.617 50.6198 124.933Z" fill="#E1DCEB"/>
</mask>
<g mask="url(#mask0_2_4505)">
<path fill-rule="evenodd" clip-rule="evenodd" d="M80.4242 96.1631C67.2127 78.8614 60.5281 58.2346 58.3721 44.3863L69.0106 42.73C70.9513 55.1952 77.0768 74.0387 88.9813 89.6289C100.774 105.072 118.027 117.115 142.632 117.115V127.882C113.917 127.882 93.7476 113.611 80.4242 96.1631Z" fill="#011625"/>
<path fill-rule="evenodd" clip-rule="evenodd" d="M81.8421 92.854C68.6307 75.5523 61.9461 54.9255 59.79 41.0772L70.4285 39.4209C72.3692 51.8861 78.4948 70.7296 90.3993 86.3198C102.192 101.763 119.445 113.806 144.05 113.806V124.573C115.335 124.573 95.1656 110.302 81.8421 92.854Z" fill="white"/>
<path fill-rule="evenodd" clip-rule="evenodd" d="M64.8245 117.907C51.6131 100.606 44.9285 79.9787 42.7725 66.1304L53.411 64.4741C55.3517 76.9394 61.4772 95.7828 73.3817 111.373C85.1743 126.816 102.427 138.859 127.032 138.859V149.626C98.317 149.626 78.148 135.356 64.8245 117.907Z" fill="white"/>
</g>
<circle cx="110.999" cy="131.899" r="19" fill="#FE0000"/>
<path fill-rule="evenodd" clip-rule="evenodd" d="M118.687 126.134C119.423 126.882 119.413 128.085 118.664 128.821L109.644 137.688C108.905 138.414 107.719 138.414 106.98 137.688L103.334 134.103C102.585 133.368 102.575 132.165 103.311 131.416C104.046 130.668 105.249 130.658 105.998 131.393L108.312 133.668L116 126.111C116.749 125.375 117.952 125.386 118.687 126.134Z" fill="white"/>
<path d="M148.153 41.1869L148.153 41.1867C149.277 38.3314 149.725 35.4838 150.195 32.4991C150.275 31.9905 150.355 31.4779 150.44 30.9607L148.153 41.1869ZM148.153 41.1869C147.961 41.6742 147.409 41.9152 146.922 41.7228L146.92 41.7221C146.433 41.5327 146.192 40.9818 146.383 40.4951L146.383 40.495M148.153 41.1869L146.383 40.495M146.383 40.495C147.456 37.769 147.879 35.0392 148.309 32.2673M146.383 40.495L148.309 32.2673M148.309 32.2673C148.392 31.7318 148.476 31.1947 148.564 30.6557L148.309 32.2673ZM149.655 29.8713C150.174 29.9568 150.525 30.444 150.44 30.9606L148.564 30.6555C148.649 30.1377 149.138 29.7861 149.655 29.8713Z" fill="#011625" stroke="#011625" stroke-width="0.633333"/>
<path d="M153.602 47.247C159.979 42.8327 166.226 36.888 170.873 30.6603L170.873 30.6601C171.185 30.241 171.781 30.1539 172.203 30.4661C172.623 30.7767 172.711 31.3708 172.398 31.7906C167.637 38.1732 161.228 44.2716 154.688 48.8023L154.687 48.8025C154.257 49.1012 153.664 48.9938 153.364 48.5643C153.066 48.1368 153.171 47.5464 153.602 47.247ZM153.602 47.247L153.422 46.987L153.602 47.2467C153.602 47.2468 153.602 47.2469 153.602 47.247Z" fill="#011625" stroke="#011625" stroke-width="0.633333"/>
<path d="M172.239 52.9764L172.239 52.977C172.383 53.4743 172.094 53.9997 171.588 54.1464C166.46 55.6114 160.812 56.3567 155.662 54.7848C155.161 54.6314 154.879 54.0992 155.031 53.6021L155.031 53.6019C155.184 53.1045 155.715 52.8212 156.217 52.9746L156.218 52.9747C161.073 54.456 166.35 53.6731 171.063 52.3249C171.568 52.182 172.095 52.4738 172.239 52.9764Z" fill="#011625" stroke="#011625" stroke-width="0.633333"/>
<circle cx="155.965" cy="64.133" r="3.8" fill="#1749B3"/>
<circle cx="124.299" cy="24.8664" r="3.8" fill="#1749B3"/>
<path d="M131.609 41.6249C131.281 40.267 129.35 40.267 129.022 41.6249L128.597 43.3837C128.48 43.869 128.101 44.2478 127.616 44.365L125.857 44.7896C124.499 45.1173 124.499 47.0488 125.857 47.3766L127.616 47.8011C128.101 47.9183 128.48 48.2972 128.597 48.7824L129.022 50.5413C129.35 51.8992 131.281 51.8992 131.609 50.5413L132.033 48.7824C132.151 48.2972 132.529 47.9183 133.015 47.8011L134.774 47.3766C136.131 47.0488 136.131 45.1173 134.774 44.7896L133.015 44.365C132.529 44.2478 132.151 43.869 132.033 43.3837L131.609 41.6249Z" fill="#1749B3"/>
<path fill-rule="evenodd" clip-rule="evenodd" d="M115.41 12.3964C115.794 13.373 115.314 14.4759 114.337 14.8599C111.55 15.956 107.978 19.4867 105.593 23.8813C103.777 27.2263 102.895 30.6046 103.266 33.3693C104.381 31.7772 105.716 30.4712 107.265 29.6323C110.041 28.1284 113.209 28.2881 116.276 30.3779C118.955 32.2039 120.048 34.8022 119.759 37.3912C119.482 39.8665 117.972 42.1042 115.924 43.5099C113.844 44.9368 111.084 45.5947 108.236 44.7227C106.622 44.2283 105.074 43.2724 103.657 41.8209C102.305 47.0829 102.354 53.674 104.588 59.5034C104.963 60.4832 104.473 61.582 103.493 61.9575C102.514 62.333 101.415 61.843 101.039 60.8632C98.0932 53.1753 98.4759 44.3951 100.878 38.0003C100.81 37.877 100.742 37.752 100.675 37.6253C98.148 32.8534 99.6612 26.8438 102.253 22.0686C104.865 17.2566 109.006 12.8732 112.947 11.3235C113.923 10.9395 115.026 11.4199 115.41 12.3964ZM105.145 37.6736C106.58 39.7121 108.069 40.6973 109.349 41.0892C110.96 41.5828 112.532 41.2288 113.773 40.3768C115.046 39.5037 115.845 38.1957 115.982 36.969C116.107 35.8559 115.718 34.596 114.136 33.5181C112.131 32.1519 110.485 32.21 109.075 32.9736C107.669 33.735 106.278 35.3284 105.145 37.6736Z" fill="#E3E3E3"/>
<path fill-rule="evenodd" clip-rule="evenodd" d="M176.744 86.7061C156.828 79.3038 141.587 88.5084 136.659 93.7144C135.456 94.9845 133.452 95.0394 132.182 93.8371C130.912 92.6347 130.857 90.6305 132.059 89.3604C138.318 82.749 156.134 72.2893 178.951 80.7696C180.59 81.3789 181.425 83.2018 180.816 84.8411C180.206 86.4805 178.383 87.3155 176.744 86.7061Z" fill="#CCC6D9"/>
<path fill-rule="evenodd" clip-rule="evenodd" d="M156.484 93.3605C156.928 93.1978 157.396 92.9815 157.757 92.6684C158.185 92.2965 158.359 91.8175 158.476 91.3133C158.626 90.6655 158.686 89.9754 158.868 89.3266C158.936 89.0857 159.066 88.9946 159.121 88.9542C159.262 88.8521 159.404 88.8248 159.538 88.835C159.697 88.8468 159.915 88.9085 160.058 89.1817C160.078 89.2208 160.105 89.2804 160.123 89.3621C160.136 89.4219 160.144 89.609 160.158 89.6862C160.192 89.8762 160.221 90.0663 160.248 90.2573C160.339 90.8933 160.39 91.4335 160.675 92.0177C161.062 92.8109 161.449 93.2962 161.974 93.5112C162.482 93.719 163.089 93.68 163.865 93.517C163.938 93.4986 164.011 93.4828 164.084 93.47C164.426 93.4086 164.753 93.6393 164.82 93.9894C164.887 94.3393 164.67 94.6802 164.331 94.7571C164.26 94.7731 164.19 94.7884 164.121 94.8023C163.073 95.0689 161.86 96.0207 161.154 96.854C160.937 97.111 160.619 97.8293 160.294 98.2876C160.055 98.6257 159.785 98.8485 159.559 98.9272C159.408 98.9803 159.28 98.9721 159.175 98.9454C159.021 98.9065 158.894 98.8212 158.797 98.6855C158.743 98.6112 158.694 98.5117 158.671 98.3847C158.659 98.3236 158.658 98.1682 158.658 98.0978C158.592 97.864 158.511 97.6356 158.452 97.3997C158.312 96.8367 158.035 96.4802 157.707 96.0094C157.401 95.5687 157.071 95.2918 156.588 95.0708C156.525 95.055 156.018 94.9275 155.839 94.8542C155.578 94.7469 155.453 94.5671 155.408 94.4702C155.331 94.3059 155.323 94.1624 155.338 94.0427C155.361 93.866 155.438 93.7149 155.575 93.5928C155.66 93.517 155.787 93.4432 155.956 93.4072C156.087 93.3792 156.435 93.3629 156.484 93.3605ZM159.458 92.4429C159.482 92.4967 159.507 92.5508 159.533 92.6054C160.099 93.7671 160.732 94.4157 161.501 94.7304L161.527 94.7406C161.013 95.1332 160.547 95.5721 160.191 95.9928C160.044 96.1661 159.85 96.5259 159.64 96.8949C159.45 96.2585 159.138 95.8086 158.746 95.2456C158.447 94.8159 158.133 94.4926 157.748 94.229C158.047 94.0713 158.332 93.8865 158.581 93.6708C158.995 93.3114 159.268 92.8952 159.458 92.4429Z" fill="#1749B3"/>
<path d="M41.666 103.336C41.6184 103.736 41.2548 104.02 40.8551 103.97L41.666 103.336ZM41.666 103.336L41.9802 103.375C42.3879 100.072 43.7896 97.3218 46.2625 95.0972L46.2626 95.0971C46.6904 94.712 46.7272 94.0501 46.3422 93.6194C45.9591 93.1873 45.2973 93.15 44.8684 93.5362C42.0093 96.1092 40.3797 99.3013 39.9089 103.114C39.8368 103.688 40.2454 104.211 40.8151 104.284L40.8155 104.284C41.3895 104.356 41.912 103.948 41.9804 103.374L41.666 103.336Z" fill="#011625" stroke="#011625" stroke-width="0.633333"/>
<mask id="path-20-outside-1_2_4505" maskUnits="userSpaceOnUse" x="-7.94788" y="88.2798" width="69.5401" height="49.6561" fill="black">
<rect fill="white" x="-7.94788" y="88.2798" width="69.5401" height="49.6561"/>
<path fill-rule="evenodd" clip-rule="evenodd" d="M8.71236 104.145C8.26153 104.893 7.87632 105.684 7.57314 106.508C7.43785 106.876 7.21996 107.645 7.26698 108.266C7.31472 108.929 7.62441 109.445 8.23946 109.644C9.05631 109.908 9.65266 109.771 10.0802 109.463C10.492 109.167 10.7714 108.671 10.8976 108.046C11.1383 106.851 10.7981 105.139 10.419 104.192C10.914 103.48 11.4756 102.816 12.0931 102.206C16.6928 97.668 24.5332 97.8075 31.2879 102.401C33.6519 104.009 35.2941 107.921 36.5144 112.231C38.4153 118.941 39.1875 126.653 39.4843 128.901C39.5588 129.455 39.6633 129.775 39.7025 129.836C39.8892 130.137 40.1409 130.182 40.3125 130.187C40.5606 130.192 40.7455 130.114 40.8875 130.009C41.0792 129.864 41.22 129.641 41.252 129.327C41.2683 129.154 41.2425 128.92 41.197 128.675C41.1637 128.504 41.0992 128.323 41.1139 128.194C41.2114 127.373 41.3578 126.562 41.4975 125.746C41.9608 123.006 42.7087 120.388 43.5834 117.753C46.3618 109.379 48.9378 100.589 54.584 93.6409C54.8372 93.3292 54.7924 92.8678 54.4804 92.6123C54.1713 92.3564 53.7134 92.4022 53.4574 92.7147C47.6979 99.8 45.0383 108.748 42.2041 117.288C41.4605 119.53 40.8063 121.76 40.3339 124.059C39.8006 120.213 38.9156 114.912 37.463 110.33C36.1714 106.254 34.3982 102.754 32.1002 101.19C24.7008 96.1586 16.1107 96.1906 11.0741 101.162C10.5355 101.694 10.0325 102.265 9.57619 102.87C5.73006 97.9424 -0.990643 96.8005 -6.20633 100.292C-6.54139 100.516 -6.63034 100.97 -6.40844 101.306C-6.18368 101.641 -5.73316 101.733 -5.39811 101.509C-0.698115 98.363 5.39141 99.5166 8.71236 104.145ZM9.41967 105.888C9.2403 106.255 9.0801 106.632 8.93611 107.019C8.86047 107.226 8.73551 107.621 8.7155 107.99C8.71174 108.077 8.72997 108.208 8.73972 108.269C8.95357 108.335 9.11616 108.358 9.23219 108.274C9.37743 108.17 9.4281 107.972 9.4724 107.753C9.58427 107.204 9.53697 106.507 9.41967 105.888Z"/>
</mask>
<path fill-rule="evenodd" clip-rule="evenodd" d="M8.71236 104.145C8.26153 104.893 7.87632 105.684 7.57314 106.508C7.43785 106.876 7.21996 107.645 7.26698 108.266C7.31472 108.929 7.62441 109.445 8.23946 109.644C9.05631 109.908 9.65266 109.771 10.0802 109.463C10.492 109.167 10.7714 108.671 10.8976 108.046C11.1383 106.851 10.7981 105.139 10.419 104.192C10.914 103.48 11.4756 102.816 12.0931 102.206C16.6928 97.668 24.5332 97.8075 31.2879 102.401C33.6519 104.009 35.2941 107.921 36.5144 112.231C38.4153 118.941 39.1875 126.653 39.4843 128.901C39.5588 129.455 39.6633 129.775 39.7025 129.836C39.8892 130.137 40.1409 130.182 40.3125 130.187C40.5606 130.192 40.7455 130.114 40.8875 130.009C41.0792 129.864 41.22 129.641 41.252 129.327C41.2683 129.154 41.2425 128.92 41.197 128.675C41.1637 128.504 41.0992 128.323 41.1139 128.194C41.2114 127.373 41.3578 126.562 41.4975 125.746C41.9608 123.006 42.7087 120.388 43.5834 117.753C46.3618 109.379 48.9378 100.589 54.584 93.6409C54.8372 93.3292 54.7924 92.8678 54.4804 92.6123C54.1713 92.3564 53.7134 92.4022 53.4574 92.7147C47.6979 99.8 45.0383 108.748 42.2041 117.288C41.4605 119.53 40.8063 121.76 40.3339 124.059C39.8006 120.213 38.9156 114.912 37.463 110.33C36.1714 106.254 34.3982 102.754 32.1002 101.19C24.7008 96.1586 16.1107 96.1906 11.0741 101.162C10.5355 101.694 10.0325 102.265 9.57619 102.87C5.73006 97.9424 -0.990643 96.8005 -6.20633 100.292C-6.54139 100.516 -6.63034 100.97 -6.40844 101.306C-6.18368 101.641 -5.73316 101.733 -5.39811 101.509C-0.698115 98.363 5.39141 99.5166 8.71236 104.145ZM9.41967 105.888C9.2403 106.255 9.0801 106.632 8.93611 107.019C8.86047 107.226 8.73551 107.621 8.7155 107.99C8.71174 108.077 8.72997 108.208 8.73972 108.269C8.95357 108.335 9.11616 108.358 9.23219 108.274C9.37743 108.17 9.4281 107.972 9.4724 107.753C9.58427 107.204 9.53697 106.507 9.41967 105.888Z" fill="#011625"/>
<path d="M8.71236 104.145L9.25492 104.471L9.46999 104.114L9.22692 103.775L8.71236 104.145ZM7.57314 106.508L8.1674 106.727L8.16756 106.727L7.57314 106.508ZM7.26698 108.266L7.89869 108.221L7.89851 108.219L7.26698 108.266ZM8.23946 109.644L8.04446 110.247L8.04488 110.247L8.23946 109.644ZM10.0802 109.463L9.71069 108.949L9.71013 108.949L10.0802 109.463ZM10.8976 108.046L11.5184 108.171L11.5184 108.171L10.8976 108.046ZM10.419 104.192L9.89891 103.831L9.70427 104.111L9.831 104.427L10.419 104.192ZM12.0931 102.206L11.6483 101.756L11.6483 101.756L12.0931 102.206ZM31.2879 102.401L31.6441 101.877L31.644 101.877L31.2879 102.401ZM36.5144 112.231L35.905 112.403L35.9051 112.403L36.5144 112.231ZM39.4843 128.901L38.8564 128.983L38.8566 128.985L39.4843 128.901ZM39.7025 129.836L40.2405 129.502L40.2349 129.493L39.7025 129.836ZM40.3125 130.187L40.2941 130.82L40.301 130.82L40.3125 130.187ZM40.8875 130.009L41.2658 130.517L41.2688 130.514L40.8875 130.009ZM41.252 129.327L41.8821 129.391L41.8825 129.386L41.252 129.327ZM41.197 128.675L41.8198 128.559L41.8186 128.553L41.197 128.675ZM41.1139 128.194L40.485 128.12L40.4847 128.122L41.1139 128.194ZM41.4975 125.746L42.1217 125.853L42.122 125.852L41.4975 125.746ZM43.5834 117.753L44.1845 117.952L44.1845 117.952L43.5834 117.753ZM54.584 93.6409L55.0755 94.0403L55.0757 94.0401L54.584 93.6409ZM54.4804 92.6123L54.0765 93.1001L54.0792 93.1023L54.4804 92.6123ZM53.4574 92.7147L52.9675 92.3133L52.966 92.3152L53.4574 92.7147ZM42.2041 117.288L41.603 117.088L41.603 117.089L42.2041 117.288ZM40.3339 124.059L39.7065 124.146L40.9542 124.186L40.3339 124.059ZM37.463 110.33L36.8592 110.521L36.8592 110.521L37.463 110.33ZM32.1002 101.19L32.4565 100.667L32.4563 100.667L32.1002 101.19ZM11.0741 101.162L10.6292 100.711L10.6291 100.712L11.0741 101.162ZM9.57619 102.87L9.07694 103.26L9.58471 103.91L10.0818 103.251L9.57619 102.87ZM-6.20633 100.292L-5.85476 100.819L-5.85401 100.818L-6.20633 100.292ZM-6.40844 101.306L-6.93696 101.655L-6.93465 101.658L-6.40844 101.306ZM-5.39811 101.509L-5.04653 102.036L-5.0458 102.035L-5.39811 101.509ZM9.41967 105.888L10.0419 105.77L9.68695 103.895L8.85046 105.61L9.41967 105.888ZM8.93611 107.019L8.34265 106.798L8.34124 106.801L8.93611 107.019ZM8.7155 107.99L8.08305 107.956L8.08276 107.963L8.7155 107.99ZM8.73972 108.269L8.11443 108.37L8.17683 108.758L8.55215 108.874L8.73972 108.269ZM9.23219 108.274L8.86364 107.759L8.86045 107.761L9.23219 108.274ZM9.4724 107.753L8.8518 107.627L8.85165 107.628L9.4724 107.753ZM8.16979 103.818C7.69963 104.599 7.2966 105.425 6.97872 106.29L8.16756 106.727C8.45605 105.942 8.82343 105.188 9.25492 104.471L8.16979 103.818ZM6.97888 106.289C6.83475 106.681 6.57796 107.554 6.63545 108.314L7.89851 108.219C7.86197 107.735 8.04094 107.071 8.1674 106.727L6.97888 106.289ZM6.63529 108.312C6.69619 109.158 7.12 109.948 8.04446 110.247L8.43446 109.042C8.12883 108.943 7.93324 108.701 7.89868 108.221L6.63529 108.312ZM8.04488 110.247C9.02933 110.565 9.83984 110.417 10.4502 109.977L9.71013 108.949C9.46547 109.125 9.08329 109.251 8.43405 109.042L8.04488 110.247ZM10.4497 109.977C11.0277 109.562 11.3707 108.903 11.5184 108.171L10.2768 107.921C10.1721 108.439 9.95621 108.772 9.71069 108.949L10.4497 109.977ZM11.5184 108.171C11.6589 107.474 11.625 106.666 11.5173 105.934C11.4088 105.197 11.2175 104.483 11.007 103.957L9.831 104.427C9.99958 104.849 10.1679 105.465 10.2641 106.118C10.3611 106.778 10.3769 107.424 10.2767 107.921L11.5184 108.171ZM10.9391 104.554C11.4112 103.874 11.9475 103.24 12.5379 102.657L11.6483 101.756C11.0037 102.392 10.4167 103.086 9.89891 103.831L10.9391 104.554ZM12.5379 102.657C16.8473 98.4053 24.3283 98.4341 30.9317 102.924L31.644 101.877C24.7381 97.1809 16.5384 96.9306 11.6483 101.756L12.5379 102.657ZM30.9316 102.924C31.9831 103.64 32.9248 104.908 33.7636 106.586C34.5973 108.254 35.3002 110.267 35.905 112.403L37.1238 112.058C36.5083 109.885 35.78 107.787 34.8966 106.02C34.0181 104.262 32.9567 102.77 31.6441 101.877L30.9316 102.924ZM35.9051 112.403C37.7899 119.057 38.5559 126.707 38.8564 128.983L40.1122 128.818C39.8191 126.598 39.0406 118.825 37.1238 112.058L35.9051 112.403ZM38.8566 128.985C38.8968 129.284 38.9461 129.528 38.9932 129.711C39.0167 129.803 39.0407 129.883 39.0644 129.951C39.0817 130.001 39.116 130.095 39.1701 130.179L40.2349 129.493C40.2481 129.514 40.2564 129.529 40.2598 129.536C40.2638 129.544 40.266 129.549 40.2664 129.55C40.2672 129.552 40.265 129.547 40.2603 129.534C40.251 129.507 40.2369 129.461 40.22 129.396C40.1866 129.266 40.1463 129.072 40.112 128.816L38.8566 128.985ZM39.1646 130.17C39.5054 130.719 40.0045 130.812 40.2942 130.82L40.3309 129.554C40.2906 129.553 40.2789 129.547 40.2778 129.547C40.2775 129.547 40.2772 129.547 40.2768 129.546C40.2763 129.546 40.275 129.545 40.2727 129.543C40.2687 129.54 40.2568 129.528 40.2404 129.502L39.1646 130.17ZM40.301 130.82C40.701 130.828 41.0211 130.699 41.2658 130.517L40.5091 129.501C40.4853 129.518 40.4624 129.531 40.4379 129.539C40.4139 129.547 40.378 129.555 40.3241 129.554L40.301 130.82ZM41.2688 130.514C41.6038 130.262 41.8326 129.877 41.882 129.391L40.6219 129.263C40.614 129.34 40.5947 129.39 40.5767 129.422C40.5587 129.455 40.5355 129.481 40.5061 129.503L41.2688 130.514ZM41.8825 129.386C41.9074 129.122 41.8675 128.818 41.8198 128.559L40.5742 128.79C40.6174 129.023 40.6291 129.186 40.6214 129.268L41.8825 129.386ZM41.8186 128.553C41.8073 128.495 41.794 128.44 41.7832 128.395C41.7712 128.347 41.763 128.314 41.7556 128.281C41.7485 128.249 41.7458 128.232 41.7449 128.225C41.7438 128.216 41.747 128.233 41.7431 128.267L40.4847 128.122C40.4641 128.302 40.5002 128.471 40.5193 128.557C40.5504 128.696 40.5585 128.709 40.5755 128.796L41.8186 128.553ZM41.7428 128.269C41.8379 127.468 41.9805 126.677 42.1217 125.853L40.8733 125.639C40.735 126.446 40.5849 127.277 40.485 128.12L41.7428 128.269ZM42.122 125.852C42.5777 123.157 43.315 120.572 44.1845 117.952L42.9823 117.553C42.1025 120.204 41.3438 122.856 40.873 125.641L42.122 125.852ZM44.1845 117.952C46.9774 109.535 49.5192 100.877 55.0755 94.0403L54.0925 93.2415C48.3564 100.3 45.7462 109.223 42.9823 117.554L44.1845 117.952ZM55.0757 94.0401C55.5471 93.4596 55.4654 92.6003 54.8817 92.1223L54.0792 93.1023C54.1194 93.1353 54.1272 93.1987 54.0924 93.2416L55.0757 94.0401ZM54.8843 92.1245C54.3018 91.6422 53.4435 91.7323 52.9675 92.3133L53.9474 93.116C53.9834 93.0721 54.0408 93.0706 54.0765 93.1001L54.8843 92.1245ZM52.966 92.3152C47.117 99.5106 44.4235 108.59 41.603 117.088L42.8052 117.487C45.653 108.906 48.2789 100.089 53.9489 93.1141L52.966 92.3152ZM41.603 117.089C40.855 119.343 40.1927 121.599 39.7135 123.932L40.9542 124.186C41.4198 121.921 42.0659 119.716 42.8052 117.487L41.603 117.089ZM40.9612 123.972C40.4267 120.117 39.536 114.773 38.0667 110.138L36.8592 110.521C38.2952 115.051 39.1744 120.308 39.7065 124.146L40.9612 123.972ZM38.0667 110.138C37.4126 108.074 36.6307 106.136 35.7105 104.507C34.7937 102.883 33.7175 101.525 32.4565 100.667L31.7439 101.714C32.7809 102.42 33.7403 103.593 34.6075 105.129C35.4713 106.659 36.2218 108.51 36.8592 110.521L38.0667 110.138ZM32.4563 100.667C24.8932 95.5236 15.9477 95.4616 10.6292 100.711L11.5191 101.613C16.2737 96.9196 24.5084 96.7937 31.7441 101.714L32.4563 100.667ZM10.6291 100.712C10.0696 101.264 9.54624 101.858 9.07063 102.488L10.0818 103.251C10.5188 102.672 11.0013 102.124 11.5192 101.613L10.6291 100.712ZM10.0754 102.48C6.02848 97.2954 -1.06262 96.0865 -6.55865 99.7658L-5.85401 100.818C-0.918671 97.5145 5.43164 98.5894 9.07694 103.26L10.0754 102.48ZM-6.55791 99.7653C-7.18638 100.185 -7.3486 101.031 -6.93695 101.655L-5.87994 100.957C-5.91207 100.908 -5.89639 100.847 -5.85476 100.819L-6.55791 99.7653ZM-6.93465 101.658C-6.51768 102.281 -5.67548 102.456 -5.04654 102.036L-5.74968 100.982C-5.79083 101.01 -5.84969 101.002 -5.88224 100.953L-6.93465 101.658ZM-5.0458 102.035C-0.635834 99.0834 5.07184 100.158 8.19779 104.514L9.22692 103.775C5.71097 98.8756 -0.760396 97.6425 -5.75042 100.983L-5.0458 102.035ZM8.85046 105.61C8.66142 105.998 8.49325 106.394 8.34267 106.798L9.52956 107.24C9.66695 106.871 9.81918 106.513 9.98889 106.165L8.85046 105.61ZM8.34124 106.801C8.25947 107.025 8.10826 107.491 8.08309 107.956L9.34791 108.025C9.36275 107.75 9.46147 107.426 9.53099 107.236L8.34124 106.801ZM8.08276 107.963C8.07586 108.122 8.10529 108.313 8.11443 108.37L9.36502 108.169C9.36147 108.146 9.35628 108.111 9.35252 108.074C9.35066 108.056 9.34943 108.041 9.34879 108.029C9.3481 108.016 9.34846 108.013 9.34824 108.018L8.08276 107.963ZM8.55215 108.874C8.67351 108.912 8.83079 108.954 8.99652 108.961C9.17394 108.968 9.39764 108.936 9.60393 108.786L8.86045 107.761C8.90158 107.731 8.94497 107.713 8.98333 107.703C9.01927 107.694 9.04355 107.695 9.04876 107.695C9.05348 107.695 9.04648 107.695 9.02345 107.69C9.00075 107.686 8.96975 107.677 8.9273 107.664L8.55215 108.874ZM9.60074 108.789C9.80462 108.643 9.91429 108.45 9.97717 108.294C10.0378 108.145 10.0709 107.989 10.0932 107.879L8.85165 107.628C8.8413 107.679 8.83253 107.719 8.82366 107.753C8.81482 107.787 8.80779 107.807 8.80313 107.819C8.79328 107.843 8.805 107.801 8.86364 107.759L9.60074 108.789ZM10.093 107.88C10.2282 107.216 10.1663 106.427 10.0419 105.77L8.7974 106.006C8.90761 106.588 8.94032 107.192 8.8518 107.627L10.093 107.88Z" fill="#011625" mask="url(#path-20-outside-1_2_4505)"/>
</g>
<defs>
<linearGradient id="paint0_linear_2_4505" x1="94.9084" y1="-2.53219" x2="96.4329" y2="258.808" gradientUnits="userSpaceOnUse">
<stop stop-color="#E9E6E6"/>
<stop offset="0.276042" stop-color="#F7F7F7"/>
</linearGradient>
<clipPath id="clip0_2_4505">
<rect width="185" height="185" fill="white"/>
</clipPath>
</defs>
</svg>
