<svg width="34" height="34" viewBox="0 0 34 34" fill="none" xmlns="http://www.w3.org/2000/svg">
<path d="M0.340673 33.6663L2.59401 25.3863C1.10924 22.8411 0.329167 19.9463 0.334007 16.9997C0.334007 7.79467 7.79567 0.333008 17.0007 0.333008C26.2057 0.333008 33.6673 7.79467 33.6673 16.9997C33.6673 26.2047 26.2057 33.6663 17.0007 33.6663C14.0553 33.6711 11.1618 32.8916 8.61734 31.408L0.340673 33.6663ZM10.9857 9.17967C10.7704 9.19304 10.5601 9.24973 10.3673 9.34634C10.1865 9.44872 10.0215 9.57672 9.87734 9.72634C9.67734 9.91467 9.56401 10.078 9.44234 10.2363C8.82636 11.038 8.49502 12.022 8.50067 13.033C8.50401 13.8497 8.71734 14.6447 9.05067 15.388C9.73234 16.8913 10.854 18.483 12.3357 19.958C12.6923 20.313 13.0407 20.6697 13.4157 21.0013C15.2547 22.6204 17.4461 23.7881 19.8157 24.4113L20.764 24.5563C21.0723 24.573 21.3807 24.5497 21.6907 24.5347C22.1761 24.5096 22.65 24.3782 23.079 24.1497C23.3557 24.003 23.4857 23.9297 23.7173 23.783C23.7173 23.783 23.789 23.7363 23.9257 23.633C24.1507 23.4663 24.289 23.348 24.4757 23.153C24.614 23.0097 24.734 22.8413 24.8257 22.6497C24.9557 22.378 25.0857 21.8597 25.139 21.428C25.179 21.098 25.1673 20.918 25.1623 20.8063C25.1557 20.628 25.0073 20.443 24.8457 20.3647L23.8757 19.9297C23.8757 19.9297 22.4257 19.298 21.5407 18.8947C21.4474 18.854 21.3474 18.8308 21.2457 18.8263C21.1316 18.8146 21.0164 18.8275 20.9078 18.864C20.7991 18.9005 20.6995 18.9598 20.6157 19.038V19.0347C20.6073 19.0347 20.4957 19.1297 19.2907 20.5897C19.2215 20.6826 19.1262 20.7528 19.017 20.7914C18.9078 20.83 18.7895 20.8352 18.6773 20.8063C18.5687 20.7773 18.4624 20.7405 18.359 20.6963C18.1523 20.6097 18.0807 20.5763 17.939 20.5147L17.9307 20.5113C16.9772 20.095 16.0944 19.5328 15.314 18.8447C15.104 18.6613 14.909 18.4613 14.709 18.268C14.0533 17.6401 13.4819 16.9297 13.009 16.1547L12.9107 15.9963C12.84 15.8899 12.7829 15.7752 12.7407 15.6547C12.6773 15.4097 12.8423 15.213 12.8423 15.213C12.8423 15.213 13.2473 14.7697 13.4357 14.5297C13.5925 14.3302 13.7388 14.1227 13.874 13.908C14.0707 13.5913 14.1323 13.2663 14.029 13.0147C13.5623 11.8747 13.079 10.7397 12.5823 9.61301C12.484 9.38967 12.1923 9.22967 11.9273 9.19801C11.8373 9.18801 11.7473 9.17801 11.6573 9.17134C11.4335 9.16022 11.2092 9.16245 10.9857 9.17801V9.17967Z" fill="white"/>
</svg>
