<svg width="34" height="34" viewBox="0 0 34 34" fill="none" xmlns="http://www.w3.org/2000/svg">
<path d="M17.0007 33.6663C7.79565 33.6663 0.333984 26.2047 0.333984 16.9997C0.333984 7.79467 7.79565 0.333008 17.0007 0.333008C26.2057 0.333008 33.6673 7.79467 33.6673 16.9997C33.6673 26.2047 26.2057 33.6663 17.0007 33.6663ZM11.8173 18.9497L11.839 18.938L13.289 23.7213C13.4757 24.2397 13.7323 24.333 14.044 24.2897C14.3573 24.248 14.5223 24.0797 14.7273 23.883L16.7073 21.9697L20.9573 25.1163C21.734 25.5447 22.2923 25.323 22.4857 24.3963L25.2473 11.3597C25.5523 10.1463 25.019 9.65967 24.0773 10.0463L7.85565 16.313C6.74898 16.7563 6.75565 17.3763 7.65565 17.6513L11.8173 18.9513V18.9497Z" fill="white"/>
</svg>
